<svg aria-hidden="true" style="width:0;height:0;position:absolute;overflow:hidden" xmlns="http://www.w3.org/2000/svg"><defs><symbol id="icon-rocket" viewBox="0 0 32 32"><path d="m4.838 13.295 4.038 1.714c.457-.914.946-1.816 1.467-2.705s1.073-1.74 1.657-2.552l-3.01-.61-4.152 4.152zm5.867 3.086 5.067 5.067c1.448-.66 2.806-1.41 4.076-2.248s2.298-1.651 3.086-2.438c2.057-2.057 3.568-4.165 4.533-6.324s1.486-4.597 1.562-7.314c-2.718.076-5.156.597-7.314 1.562s-4.267 2.476-6.324 4.533c-.787.787-1.6 1.816-2.438 3.086s-1.587 2.629-2.248 4.076zm8.724-3.657c-.508-.508-.762-1.137-.762-1.886s.254-1.378.762-1.886 1.136-.762 1.886-.762c.749 0 1.378.254 1.886.762s.762 1.136.762 1.886c0 .749-.254 1.378-.762 1.886s-1.136.762-1.886.762-1.378-.254-1.886-.762zm-.572 14.59 4.152-4.152-.61-3.009c-.813.584-1.664 1.136-2.552 1.657s-1.791 1.009-2.705 1.467l1.714 4.038zM31.276.876c.229 3.454-.203 6.603-1.295 9.448s-2.895 5.524-5.41 8.038l-.152.152.838 4.191c.076.381.057.749-.057 1.105s-.311.673-.59.952l-6.514 6.552-3.238-7.543-6.476-6.476-7.543-3.238 6.552-6.514c.279-.279.597-.476.952-.59s.724-.133 1.105-.057l4.19.838c.025-.025.051-.044.076-.057s.051-.032.076-.057c2.514-2.514 5.194-4.324 8.038-5.429S27.822.648 31.276.877zM3.39 21.905c.889-.889 1.975-1.34 3.257-1.352s2.368.425 3.257 1.314c.889.889 1.327 1.974 1.314 3.257s-.463 2.368-1.352 3.257c-.66.66-1.683 1.206-3.067 1.638s-3.46.838-6.229 1.219c.381-2.768.781-4.851 1.2-6.248s.959-2.425 1.619-3.086zm1.6 1.638c-.356.381-.673.978-.952 1.791s-.521 1.854-.724 3.124c1.27-.203 2.311-.444 3.124-.724s1.41-.597 1.79-.952c.483-.432.73-.971.743-1.619s-.21-1.213-.667-1.695c-.483-.457-1.048-.679-1.695-.667s-1.187.26-1.619.743z"/></symbol><symbol id="icon-touch" viewBox="0 0 24 32"><path d="M11.587.368c2.231 0 4.138.779 5.72 2.336s2.372 3.451 2.372 5.683c0 1.275-.276 2.477-.828 3.605s-1.33 2.084-2.336 2.869h-1.251v-1.839c.711-.564 1.257-1.251 1.637-2.06s.57-1.667.57-2.575c0-1.618-.576-2.992-1.729-4.12s-2.538-1.692-4.156-1.692c-1.618 0-3.004.564-4.156 1.692s-1.729 2.501-1.729 4.12c0 .907.19 1.766.57 2.575s.926 1.496 1.637 2.06v2.648c-1.373-.711-2.452-1.717-3.237-3.016S3.494 9.932 3.494 8.387c0-2.231.791-4.126 2.372-5.683S9.354.368 11.586.368zm-1.398 30.896a3.032 3.032 0 0 1-2.133-.883L.479 22.804l2.06-2.133c.343-.343.73-.607 1.159-.791s.877-.215 1.343-.092l2.869.662V8.459c0-1.03.356-1.9 1.067-2.611s1.582-1.067 2.612-1.067 1.9.356 2.611 1.067 1.067 1.582 1.067 2.611v6.326h.956c.123 0 .233.024.331.073s.208.098.331.147l5.444 2.648c.588.27 1.024.705 1.306 1.306s.362 1.22.239 1.857l-1.324 8.018c-.123.711-.466 1.293-1.03 1.747s-1.202.68-1.913.68h-9.416zm-.294-2.207h10.336l1.582-9.159-6.731-3.347h-2.023V8.459c0-.441-.135-.797-.405-1.067s-.625-.405-1.067-.405-.797.135-1.067.405c-.27.27-.405.625-.405 1.067v14.676l-5.664-1.214-.846.846 6.29 6.29zm10.335 0z"/></symbol><symbol id="icon-left" viewBox="0 0 17 32"><path fill="#fff" style="fill:var(--color1,#fff)" stroke-width="1.454" stroke="#000" d="M1.105 16.395a.548.548 0 0 1-.125-.61.55.55 0 0 1 .125-.18L15.291 2.089a.545.545 0 0 1 .747-.005l.008.008.014.013a.442.442 0 0 1 0 .644l-.001.001L2.148 15.999 16.06 29.254a.442.442 0 0 1 0 .644l-.013.013-.008.008a.543.543 0 0 1-.747-.005L1.106 16.398z"/></symbol><symbol id="icon-right" viewBox="0 0 17 32"><path fill="#fff" style="fill:var(--color1,#fff)" stroke-width="1.454" stroke="#000" d="M16.349 15.605a.548.548 0 0 1 .125.61.55.55 0 0 1-.125.18L2.163 29.911a.543.543 0 0 1-.747.005l-.008-.008-.014-.013a.442.442 0 0 1 0-.644l.001-.001 13.911-13.249L1.394 2.746a.442.442 0 0 1 0-.644l.021-.021a.545.545 0 0 1 .747.005l14.186 13.516z"/></symbol><symbol id="icon_stars" viewBox="0 0 202 32"><path fill="#ffe550" style="fill:var(--color1,#ffe550)" d="M15.42 1.038c.584-1.384 2.576-1.384 3.16 0L22.028 9.2c.246.582.804.98 1.444 1.032l8.952.706c1.516.12 2.132 1.982.976 2.958l-6.82 5.752a1.666 1.666 0 0 0-.55 1.682l-.002-.011 2.084 8.6c.352 1.456-1.258 2.608-2.556 1.828l-7.664-4.61a1.734 1.734 0 0 0-1.792.004l.008-.004-7.664 4.61c-1.3.78-2.908-.372-2.556-1.828l2.084-8.6a1.663 1.663 0 0 0-.55-1.667l-.003-.002-6.82-5.75c-1.156-.976-.54-2.84.976-2.96l8.952-.704a1.714 1.714 0 0 0 1.44-1.021l.004-.011 3.448-8.164zm42 0c.584-1.384 2.576-1.384 3.16 0L64.028 9.2c.246.582.804.98 1.444 1.032l8.952.706c1.516.12 2.132 1.982.976 2.958l-6.82 5.752a1.666 1.666 0 0 0-.55 1.682l-.002-.011 2.084 8.6c.352 1.456-1.258 2.608-2.556 1.828l-7.664-4.61a1.734 1.734 0 0 0-1.792.004l.008-.004-7.664 4.61c-1.3.78-2.908-.372-2.556-1.828l2.084-8.6a1.663 1.663 0 0 0-.55-1.668l-.003-.002-6.82-5.75c-1.156-.976-.54-2.84.976-2.96l8.952-.704a1.714 1.714 0 0 0 1.44-1.021l.004-.011 3.448-8.164zm42 0c.584-1.384 2.576-1.384 3.16 0l3.448 8.162c.246.582.804.98 1.444 1.032l8.952.706c1.516.12 2.132 1.982.976 2.958l-6.82 5.752a1.666 1.666 0 0 0-.55 1.682l-.002-.011 2.084 8.6c.352 1.456-1.258 2.608-2.556 1.828l-7.664-4.61a1.734 1.734 0 0 0-1.792.004l.008-.004-7.664 4.61c-1.3.78-2.908-.372-2.556-1.828l2.084-8.6a1.665 1.665 0 0 0-.547-1.668l-.003-.002-6.822-5.75c-1.158-.976-.542-2.84.974-2.96l8.952-.704a1.714 1.714 0 0 0 1.44-1.021l.004-.011 3.45-8.164zm42 0c.584-1.384 2.576-1.384 3.16 0l3.448 8.162c.248.582.804.98 1.444 1.032l8.952.706c1.516.12 2.132 1.982.976 2.958l-6.82 5.752a1.666 1.666 0 0 0-.55 1.682l-.002-.011 2.084 8.6c.352 1.456-1.258 2.608-2.556 1.828l-7.664-4.61a1.734 1.734 0 0 0-1.792.004l.008-.004-7.664 4.61c-1.3.78-2.908-.372-2.556-1.828l2.084-8.6a1.666 1.666 0 0 0-.55-1.668l-.003-.002-6.82-5.75c-1.156-.976-.54-2.84.976-2.96l8.952-.704a1.714 1.714 0 0 0 1.44-1.021l.004-.011 3.448-8.164zm42 0c.584-1.384 2.576-1.384 3.16 0l3.448 8.162c.248.582.804.98 1.444 1.032l8.952.706c1.516.12 2.132 1.982.976 2.958l-6.82 5.752a1.666 1.666 0 0 0-.55 1.682l-.002-.011 2.084 8.6c.352 1.456-1.258 2.608-2.556 1.828l-7.664-4.61a1.734 1.734 0 0 0-1.792.004l.008-.004-7.664 4.61c-1.3.78-2.908-.372-2.556-1.828l2.084-8.6a1.666 1.666 0 0 0-.55-1.668l-.003-.002-6.82-5.75c-1.156-.976-.54-2.84.976-2.96l8.952-.704a1.714 1.714 0 0 0 1.44-1.021l.004-.011 3.448-8.164z"/></symbol><symbol id="logo" viewBox="0 0 43 32"><path fill="#ffe550" style="fill:var(--color1,#ffe550)" d="M14.732 8.449c1.446-2.818 5.48-2.818 6.926 0a3.889 3.889 0 0 0 2.849 2.06c3.119.493 4.381 4.322 2.144 6.55a3.857 3.857 0 0 0-1.088 3.34c.494 3.117-2.785 5.468-5.601 4.043a3.931 3.931 0 0 0-3.533 0c-2.816 1.424-6.095-.927-5.601-4.043a3.863 3.863 0 0 0-1.088-3.34c-2.238-2.227-.975-6.057 2.144-6.55a3.89 3.89 0 0 0 2.849-2.06z"/><path fill="#2c2c2c" style="fill:var(--color2,#2c2c2c)" d="m2.709 20.651-.021.005c.003.074-.001.373-.012.898-.003.523-.004.866-.003 1.03 0 .157-.004.284-.01.383l.001.335c-.002.12-.008.218-.02.296l-.019.206c-.014.13-.042.2-.085.21-.092.022-.237-.049-.433-.211-.198-.17-.312-.318-.343-.445s-.038-1.058-.022-2.792c.022-1.736-.024-2.877-.139-3.425a.418.418 0 0 1 .014-.272c.036-.165.22-.32.554-.466.34-.147.848-.3 1.524-.459.683-.161 1.224-.251 1.625-.27.408-.021.627.032.657.159.02.085-.026.159-.138.223s-.212.117-.3.16l-.35.138c-.146.049-.281.096-.406.14-.126.037-.29.091-.491.16-.194.068-.374.133-.539.194-.167.054-.393.133-.676.237s-.467.169-.55.196c.012.02.023.05.033.093.079.332.122 1.127.129 2.386.446-.082.916-.204 1.411-.365.502-.163.81-.258.923-.284.27-.064.419-.039.446.074.052.219-.213.475-.797.769a8.769 8.769 0 0 1-1.963.696zM9.672 18.701a1.999 1.999 0 0 0-.279-.651c-.13-.201-.282-.333-.455-.397-.459.25-.792.727-.999 1.432-.202.696-.239 1.317-.109 1.861s.345.851.647.922c.488-.219.84-.667 1.054-1.344.22-.686.267-1.293.14-1.823zm-2.782.755c.118-.61.334-1.138.648-1.584.32-.456.689-.733 1.109-.831.427-.1.825-.004 1.195.29.368.286.614.687.737 1.203.121.509.121 1.061 0 1.656a3.773 3.773 0 0 1-.719 1.568c-.351.448-.772.73-1.263.845-.363.085-.704-.01-1.025-.285s-.542-.667-.663-1.176c-.123-.516-.129-1.077-.018-1.685zM14.505 17.565a1.999 1.999 0 0 0-.279-.651c-.13-.201-.282-.333-.455-.397-.459.25-.792.727-.999 1.432-.202.696-.239 1.317-.109 1.861s.345.851.647.922c.488-.219.84-.667 1.054-1.344.22-.686.267-1.293.14-1.823zm-2.782.755c.118-.61.334-1.138.648-1.584.32-.456.689-.733 1.109-.831.427-.1.825-.004 1.195.29.368.286.614.687.737 1.203.121.509.121 1.061 0 1.656a3.773 3.773 0 0 1-.719 1.568c-.351.448-.772.73-1.263.845-.363.085-.704-.01-1.025-.285s-.542-.667-.663-1.176c-.123-.516-.129-1.077-.018-1.685zM19.547 11.345c.114-.027.278.047.492.22.219.165.351.339.395.523s.079.727.107 1.631c.026.897.03 1.832.014 2.805-.021 2.183-.113 3.294-.277 3.332-.1.023-.224-.011-.374-.102-.144-.1-.227-.197-.249-.288s-.041-.281-.056-.569c-.529.87-1.053 1.366-1.572 1.488-.313.074-.631-.001-.954-.223-.316-.224-.51-.488-.583-.792-.104-.438-.11-.985-.019-1.64.097-.664.311-1.296.641-1.896s.748-.959 1.253-1.078c.505-.119.928.099 1.27.652.006-1.583-.076-2.813-.248-3.69-.05-.212.003-.336.159-.373zm.065 5.478c-.091-.381-.235-.687-.432-.917-.19-.231-.378-.325-.563-.282-.306.072-.574.333-.805.782s-.384.941-.46 1.473c-.071.524-.064.962.02 1.316.03.127.101.219.212.275s.23.069.358.039c.277-.065.604-.351.979-.857a3.561 3.561 0 0 0 .702-1.642l.002-.135-.013-.053zM26.421 16.184c.138.579-.009 1.128-.441 1.648a3.044 3.044 0 0 1-1.675 1.009c-.675.159-1.275.117-1.798-.125-.525-.25-.824-.53-.898-.841-.05-.212-.012-.333.116-.363.114-.027.378.09.793.351.157.09.354.163.593.219.246.054.489.053.731-.004a2.403 2.403 0 0 0 1.232-.692c.331-.346.461-.668.39-.964-.045-.191-.231-.404-.558-.641s-.677-.449-1.052-.636c-.37-.197-.719-.417-1.047-.66s-.513-.454-.555-.63c-.042-.177-.051-.372-.027-.587s.068-.378.131-.49c.205-.369.569-.749 1.091-1.14.53-.393.994-.636 1.392-.73.206-.048.396-.022.571.078s.279.225.314.374c.017.071-.044.145-.184.222s-.353.187-.642.33a5.204 5.204 0 0 0-.744.421c-.744.503-1.081.899-1.012 1.189.037.155.556.492 1.558 1.01.386.2.75.454 1.093.761.349.298.559.596.629.893zM28.87 16.716c.032.134.126.183.283.146.27-.064.58-.215.928-.453.354-.247.552-.376.595-.386.128-.03.208.022.24.156.049.205-.108.492-.471.86-.356.367-.708.592-1.056.674-.341.08-.648.055-.919-.075-.273-.137-.433-.305-.48-.503s-.064-.459-.051-.782c.011-.331.036-.765.073-1.304.042-.547.07-.997.084-1.351-.316.156-.53.248-.644.275s-.241-.003-.382-.089c-.135-.095-.215-.196-.241-.302-.04-.169.383-.441 1.271-.813a7.617 7.617 0 0 0-.179-1.603c-.05-.212-.005-.335.138-.368.121-.028.289.014.503.128.213.107.342.255.388.446s.065.54.058 1.049c.397-.131.716-.224.958-.281.427-.1.662-.059.706.125.025.106-.071.222-.289.348-.211.124-.668.347-1.372.669a47.72 47.72 0 0 1-.109 2.051c-.058.767-.068 1.228-.031 1.384zM33.639 11.164c.32-.075.654.018 1.001.279.346.254.55.512.612.774.06.254.034.537-.08.847.111.086.175.168.194.245.047.198.082.548.103 1.05.029.5.05.827.064.981a3.374 3.374 0 0 1 .05.637c.014.183-.029.287-.129.31-.128.03-.261-.054-.398-.253a3.17 3.17 0 0 1-.345-.836c-.443.947-.935 1.484-1.475 1.611-.327.077-.683.015-1.069-.185-.38-.209-.605-.462-.676-.758-.101-.424-.069-.983.096-1.678.163-.702.436-1.356.817-1.96s.793-.959 1.234-1.062zm.935 1.75c-.156-.657-.366-.954-.629-.893-.277.065-.554.339-.829.822-.277.475-.485.991-.623 1.545s-.173.977-.104 1.266c.029.12.102.207.22.262a.609.609 0 0 0 .377.023c.334-.079.658-.39.972-.933a3.813 3.813 0 0 0 .484-1.848c-.004-.111.041-.189.136-.233l-.002-.011z"/><path fill="#bbf330" style="fill:var(--color3,#bbf330)" d="M31.525 20.209c-.487.12-.876.479-1.073.941a13.291 13.291 0 0 1-12.24 8.048 13.288 13.288 0 0 1-8.41-2.977 1.59 1.59 0 0 0-1.38-.331c-1.085.267-1.487 1.578-.635 2.3a16.086 16.086 0 0 0 10.425 3.811c6.774 0 12.57-4.161 14.944-10.053.416-1.034-.549-2.004-1.631-1.738zM4.193 13.954c.562-.138.982-.598 1.123-1.159 1.441-5.732 6.657-9.993 12.895-9.993 3.94 0 7.473 1.7 9.904 4.397.385.427.967.636 1.525.498.981-.241 1.421-1.382.759-2.145A16.095 16.095 0 0 0 18.211 0C10.563 0 4.162 5.304 2.524 12.414c-.226.98.692 1.78 1.668 1.54z"/><path fill="#bbf330" style="fill:var(--color3,#bbf330);stroke:var(--color3,#bbf330)" stroke="#bbf330" stroke-linejoin="round" stroke-width="1.031" d="M42.409 5.331c-3.803 7.241-5.473 2.465-10.826 5.271.535-8.406 6.205-3.291 10.826-5.271z"/></symbol><symbol id="icon-gg_menu" viewBox="0 0 43 32"><path fill="#7eb101" style="fill:var(--color3,#7eb101)" d="M.592 3.556a2.073 2.073 0 0 1 2.074-2.074h37.333a2.075 2.075 0 0 1 0 4.148H2.666A2.073 2.073 0 0 1 .592 3.556zm0 12.51a2.073 2.073 0 0 1 2.074-2.074h37.333a2.075 2.075 0 0 1 0 4.148H2.666a2.075 2.075 0 0 1-2.074-2.074zm2.074 10.437a2.073 2.073 0 0 0-1.467 3.541c.389.389.917.607 1.467.607h37.333A2.075 2.075 0 1 0 40 26.503H2.667z"/></symbol><symbol id="icon-close" viewBox="0 0 43 32"><path fill="#ffe550" style="fill:var(--color2,#ffe550)" d="M.592 3.556a2.073 2.073 0 0 1 2.074-2.074h37.333a2.075 2.075 0 0 1 0 4.148H2.666A2.073 2.073 0 0 1 .592 3.556zm0 12.51a2.073 2.073 0 0 1 2.074-2.074h37.333a2.075 2.075 0 0 1 0 4.148H2.666a2.075 2.075 0 0 1-2.074-2.074zm2.074 10.437a2.073 2.073 0 0 0-1.467 3.541c.389.389.917.607 1.467.607h37.333A2.075 2.075 0 1 0 40 26.503H2.667z"/></symbol><symbol id="error" viewBox="0 0 32 32"><path d="m16 2.899 13.409 26.726H2.59L15.999 2.899zM16 0c-.69 0-1.379.465-1.903 1.395L.438 28.617C-.608 30.477.282 32 2.416 32h27.166c2.134 0 3.025-1.522 1.978-3.383L17.901 1.395C17.378.465 16.688 0 15.998 0z"/><path d="M18 26a2 2 0 1 1-3.999.001A2 2 0 0 1 18 26zM16 22a2 2 0 0 1-2-2v-6a2 2 0 1 1 4 0v6a2 2 0 0 1-2 2z"/></symbol><symbol id="modal_close" viewBox="0 0 30 32"><path d="m16.219 14.826 4.928-4.924a1.012 1.012 0 0 0-1.43-1.428l-4.928 4.873-4.958-4.954a1.013 1.013 0 0 0-1.43 1.428l4.948 5.005-4.846 4.782a1.002 1.002 0 0 0-.284 1.139 1.014 1.014 0 0 0 1.714.29l4.836-4.833 4.806 4.802a1.013 1.013 0 0 0 1.43-1.428l-4.786-4.751z"/></symbol></defs></svg>