<svg aria-hidden="true" style="position: absolute; width: 0; height: 0; overflow: hidden;" version="1.1"
    xmlns="http://www.w3.org/2000/svg" xmlns:xlink="http://www.w3.org/1999/xlink">
    <defs>
        <symbol id="icon-rocket" viewBox="0 0 32 32">
            <path
                d="M4.838 13.295l4.038 1.714c0.457-0.914 0.946-1.816 1.467-2.705s1.073-1.74 1.657-2.552l-3.010-0.61-4.152 4.152zM10.705 16.381l5.067 5.067c1.448-0.66 2.806-1.41 4.076-2.248s2.298-1.651 3.086-2.438c2.057-2.057 3.568-4.165 4.533-6.324s1.486-4.597 1.562-7.314c-2.718 0.076-5.156 0.597-7.314 1.562s-4.267 2.476-6.324 4.533c-0.787 0.787-1.6 1.816-2.438 3.086s-1.587 2.629-2.248 4.076zM19.429 12.724c-0.508-0.508-0.762-1.137-0.762-1.886s0.254-1.378 0.762-1.886 1.136-0.762 1.886-0.762c0.749 0 1.378 0.254 1.886 0.762s0.762 1.136 0.762 1.886c0 0.749-0.254 1.378-0.762 1.886s-1.136 0.762-1.886 0.762-1.378-0.254-1.886-0.762zM18.857 27.314l4.152-4.152-0.61-3.009c-0.813 0.584-1.664 1.136-2.552 1.657s-1.791 1.009-2.705 1.467l1.714 4.038zM31.276 0.876c0.229 3.454-0.203 6.603-1.295 9.448s-2.895 5.524-5.41 8.038l-0.152 0.152 0.838 4.191c0.076 0.381 0.057 0.749-0.057 1.105s-0.311 0.673-0.59 0.952l-6.514 6.552-3.238-7.543-6.476-6.476-7.543-3.238 6.552-6.514c0.279-0.279 0.597-0.476 0.952-0.59s0.724-0.133 1.105-0.057l4.19 0.838c0.025-0.025 0.051-0.044 0.076-0.057s0.051-0.032 0.076-0.057c2.514-2.514 5.194-4.324 8.038-5.429s5.994-1.543 9.448-1.314zM3.39 21.905c0.889-0.889 1.975-1.34 3.257-1.352s2.368 0.425 3.257 1.314c0.889 0.889 1.327 1.974 1.314 3.257s-0.463 2.368-1.352 3.257c-0.66 0.66-1.683 1.206-3.067 1.638s-3.46 0.838-6.229 1.219c0.381-2.768 0.781-4.851 1.2-6.248s0.959-2.425 1.619-3.086zM4.99 23.543c-0.356 0.381-0.673 0.978-0.952 1.791s-0.521 1.854-0.724 3.124c1.27-0.203 2.311-0.444 3.124-0.724s1.41-0.597 1.79-0.952c0.483-0.432 0.73-0.971 0.743-1.619s-0.21-1.213-0.667-1.695c-0.483-0.457-1.048-0.679-1.695-0.667s-1.187 0.26-1.619 0.743z">
            </path>
        </symbol>
        <symbol id="icon-touch" viewBox="0 0 24 32">
            <path
                d="M11.587 0.368c2.231 0 4.138 0.779 5.72 2.336s2.372 3.451 2.372 5.683c0 1.275-0.276 2.477-0.828 3.605s-1.33 2.084-2.336 2.869h-1.251v-1.839c0.711-0.564 1.257-1.251 1.637-2.060s0.57-1.667 0.57-2.575c0-1.618-0.576-2.992-1.729-4.12s-2.538-1.692-4.156-1.692c-1.618 0-3.004 0.564-4.156 1.692s-1.729 2.501-1.729 4.12c0 0.907 0.19 1.766 0.57 2.575s0.926 1.496 1.637 2.060v2.648c-1.373-0.711-2.452-1.717-3.237-3.016s-1.177-2.722-1.177-4.267c0-2.231 0.791-4.126 2.372-5.683s3.488-2.336 5.72-2.336zM10.189 31.264c-0.417 0-0.809-0.080-1.177-0.239s-0.687-0.374-0.956-0.644l-7.577-7.577 2.060-2.133c0.343-0.343 0.73-0.607 1.159-0.791s0.877-0.215 1.343-0.092l2.869 0.662v-11.991c0-1.030 0.356-1.9 1.067-2.611s1.582-1.067 2.612-1.067c1.030 0 1.9 0.356 2.611 1.067s1.067 1.582 1.067 2.611v6.326h0.956c0.123 0 0.233 0.024 0.331 0.073s0.208 0.098 0.331 0.147l5.444 2.648c0.588 0.27 1.024 0.705 1.306 1.306s0.362 1.22 0.239 1.857l-1.324 8.018c-0.123 0.711-0.466 1.293-1.030 1.747s-1.202 0.68-1.913 0.68h-9.416zM9.895 29.057h10.336l1.582-9.159-6.731-3.347h-2.023v-8.092c0-0.441-0.135-0.797-0.405-1.067s-0.625-0.405-1.067-0.405-0.797 0.135-1.067 0.405c-0.27 0.27-0.405 0.625-0.405 1.067v14.676l-5.664-1.214-0.846 0.846 6.29 6.29zM20.23 29.057v0z">
            </path>
        </symbol>
        <symbol id="icon-left" viewBox="0 0 17 32">
            <path fill="#fff" style="fill: var(--color1, #fff)" stroke-linejoin="miter" stroke-linecap="butt"
                stroke-miterlimit="4" stroke-width="1.4545" stroke="#000"
                d="M1.105 16.395v0c-0.053-0.051-0.096-0.112-0.125-0.18v0c-0.029-0.068-0.044-0.141-0.044-0.215s0.015-0.147 0.044-0.215v0c0.029-0.068 0.072-0.129 0.125-0.18v-0l14.186-13.516c0.102-0.097 0.236-0.151 0.376-0.151 0.138 0 0.271 0.052 0.371 0.146l0.008 0.008-0 0 0.014 0.013c0.044 0.041 0.078 0.091 0.102 0.147s0.036 0.115 0.036 0.175-0.012 0.12-0.036 0.175c-0.024 0.055-0.059 0.105-0.102 0.147l-0.001 0.001-13.911 13.249 13.912 13.255c0.044 0.041 0.078 0.091 0.102 0.147s0.036 0.115 0.036 0.175c0 0.060-0.012 0.12-0.036 0.175s-0.059 0.105-0.102 0.147l-0-0-0.013 0.013-0.008 0.008c-0.101 0.094-0.233 0.146-0.371 0.146-0.14 0-0.275-0.054-0.376-0.151l-0-0-14.186-13.516z">
            </path>
        </symbol>
        <symbol id="icon-right" viewBox="0 0 17 32">
            <path fill="#fff" style="fill: var(--color1, #fff)" stroke-linejoin="miter" stroke-linecap="butt"
                stroke-miterlimit="4" stroke-width="1.4545" stroke="#000"
                d="M16.349 15.605v0c0.054 0.051 0.096 0.112 0.125 0.18v0c0.029 0.068 0.044 0.141 0.044 0.215s-0.015 0.147-0.044 0.215v0c-0.029 0.068-0.072 0.129-0.125 0.18v0l-14.186 13.516c-0.101 0.097-0.236 0.151-0.376 0.151-0.138 0-0.271-0.052-0.371-0.146l-0.008-0.008 0-0-0.014-0.013c-0.044-0.041-0.078-0.091-0.102-0.147s-0.036-0.115-0.036-0.175 0.012-0.12 0.036-0.175c0.024-0.055 0.058-0.105 0.102-0.147l0.001-0.001 13.911-13.249-13.912-13.255c-0.044-0.041-0.078-0.091-0.102-0.147s-0.036-0.115-0.036-0.175c0-0.060 0.012-0.12 0.036-0.175s0.058-0.105 0.102-0.147l0 0 0.021-0.021c0.101-0.094 0.234-0.146 0.371-0.146 0.14 0 0.275 0.054 0.376 0.151l0 0 14.186 13.516z">
            </path>
        </symbol>
        <symbol id="icon_stars" viewBox="0 0 202 32">
             <path fill="#ffe550" style="fill: var(--color1, #ffe550)" d="M15.42 1.038c0.584-1.384 2.576-1.384 3.16 0l3.448 8.162c0.246 0.582 0.804 0.98 1.444 1.032l8.952 0.706c1.516 0.12 2.132 1.982 0.976 2.958l-6.82 5.752c-0.367 0.308-0.598 0.767-0.598 1.281 0 0.138 0.017 0.272 0.048 0.401l-0.002-0.011 2.084 8.6c0.352 1.456-1.258 2.608-2.556 1.828l-7.664-4.61c-0.255-0.155-0.563-0.247-0.892-0.247s-0.637 0.092-0.9 0.251l0.008-0.004-7.664 4.61c-1.3 0.78-2.908-0.372-2.556-1.828l2.084-8.6c0.029-0.117 0.046-0.251 0.046-0.389 0-0.513-0.231-0.972-0.596-1.278l-0.003-0.002-6.82-5.75c-1.156-0.976-0.54-2.84 0.976-2.96l8.952-0.704c0.649-0.050 1.193-0.456 1.44-1.021l0.004-0.011 3.448-8.164zM57.42 1.038c0.584-1.384 2.576-1.384 3.16 0l3.448 8.162c0.246 0.582 0.804 0.98 1.444 1.032l8.952 0.706c1.516 0.12 2.132 1.982 0.976 2.958l-6.82 5.752c-0.367 0.308-0.598 0.767-0.598 1.281 0 0.138 0.017 0.272 0.048 0.401l-0.002-0.011 2.084 8.6c0.352 1.456-1.258 2.608-2.556 1.828l-7.664-4.61c-0.255-0.155-0.563-0.247-0.892-0.247s-0.637 0.092-0.9 0.251l0.008-0.004-7.664 4.61c-1.3 0.78-2.908-0.372-2.556-1.828l2.084-8.6c0.029-0.117 0.046-0.252 0.046-0.39 0-0.513-0.231-0.972-0.596-1.278l-0.003-0.002-6.82-5.75c-1.156-0.976-0.54-2.84 0.976-2.96l8.952-0.704c0.649-0.050 1.193-0.456 1.44-1.021l0.004-0.011 3.448-8.164zM99.42 1.038c0.584-1.384 2.576-1.384 3.16 0l3.448 8.162c0.246 0.582 0.804 0.98 1.444 1.032l8.952 0.706c1.516 0.12 2.132 1.982 0.976 2.958l-6.82 5.752c-0.367 0.308-0.598 0.767-0.598 1.281 0 0.138 0.017 0.272 0.048 0.401l-0.002-0.011 2.084 8.6c0.352 1.456-1.258 2.608-2.556 1.828l-7.664-4.61c-0.255-0.155-0.563-0.247-0.892-0.247s-0.637 0.092-0.9 0.251l0.008-0.004-7.664 4.61c-1.3 0.78-2.908-0.372-2.556-1.828l2.084-8.6c0.030-0.118 0.047-0.253 0.047-0.392 0-0.512-0.231-0.97-0.594-1.276l-0.003-0.002-6.822-5.75c-1.158-0.976-0.542-2.84 0.974-2.96l8.952-0.704c0.649-0.050 1.193-0.456 1.44-1.021l0.004-0.011 3.45-8.164zM141.42 1.038c0.584-1.384 2.576-1.384 3.16 0l3.448 8.162c0.248 0.582 0.804 0.98 1.444 1.032l8.952 0.706c1.516 0.12 2.132 1.982 0.976 2.958l-6.82 5.752c-0.367 0.308-0.598 0.767-0.598 1.281 0 0.138 0.017 0.272 0.048 0.401l-0.002-0.011 2.084 8.6c0.352 1.456-1.258 2.608-2.556 1.828l-7.664-4.61c-0.255-0.155-0.563-0.247-0.892-0.247s-0.637 0.092-0.9 0.251l0.008-0.004-7.664 4.61c-1.3 0.78-2.908-0.372-2.556-1.828l2.084-8.6c0.029-0.117 0.046-0.252 0.046-0.39 0-0.513-0.232-0.972-0.596-1.278l-0.003-0.002-6.82-5.75c-1.156-0.976-0.54-2.84 0.976-2.96l8.952-0.704c0.649-0.050 1.193-0.456 1.44-1.021l0.004-0.011 3.448-8.164zM183.42 1.038c0.584-1.384 2.576-1.384 3.16 0l3.448 8.162c0.248 0.582 0.804 0.98 1.444 1.032l8.952 0.706c1.516 0.12 2.132 1.982 0.976 2.958l-6.82 5.752c-0.367 0.308-0.598 0.767-0.598 1.281 0 0.138 0.017 0.272 0.048 0.401l-0.002-0.011 2.084 8.6c0.352 1.456-1.258 2.608-2.556 1.828l-7.664-4.61c-0.255-0.155-0.563-0.247-0.892-0.247s-0.637 0.092-0.9 0.251l0.008-0.004-7.664 4.61c-1.3 0.78-2.908-0.372-2.556-1.828l2.084-8.6c0.029-0.117 0.046-0.252 0.046-0.39 0-0.513-0.232-0.972-0.596-1.278l-0.003-0.002-6.82-5.75c-1.156-0.976-0.54-2.84 0.976-2.96l8.952-0.704c0.649-0.050 1.193-0.456 1.44-1.021l0.004-0.011 3.448-8.164z"></path>
        </symbol>
        <symbol id="logo" viewBox="0 0 43 32">
            <path fill="#ffe550" style="fill: var(--color1, #ffe550)"
                d="M14.732 8.449c1.446-2.818 5.48-2.818 6.926 0 0.565 1.1 1.627 1.867 2.849 2.060 3.119 0.493 4.381 4.322 2.144 6.55-0.878 0.874-1.283 2.117-1.088 3.34 0.494 3.117-2.785 5.468-5.601 4.043-1.105-0.559-2.428-0.559-3.533 0-2.816 1.424-6.095-0.927-5.601-4.043 0.194-1.223-0.211-2.466-1.088-3.34-2.238-2.227-0.975-6.057 2.144-6.55 1.221-0.193 2.284-0.96 2.849-2.060z">
            </path>
            <path fill="#2c2c2c" style="fill: var(--color2, #2c2c2c)"
                d="M2.709 20.651l-0.021 0.005c0.003 0.074-0.001 0.373-0.012 0.898-0.003 0.523-0.004 0.866-0.003 1.030-0 0.157-0.004 0.284-0.010 0.383 0.001 0.097 0.001 0.209 0.001 0.335-0.002 0.12-0.008 0.218-0.020 0.296-0.006 0.069-0.012 0.137-0.019 0.206-0.014 0.13-0.042 0.2-0.085 0.21-0.092 0.022-0.237-0.049-0.433-0.211-0.198-0.17-0.312-0.318-0.343-0.445s-0.038-1.058-0.022-2.792c0.022-1.736-0.024-2.877-0.139-3.425-0.025-0.106-0.020-0.197 0.014-0.272 0.036-0.165 0.22-0.32 0.554-0.466 0.34-0.147 0.848-0.3 1.524-0.459 0.683-0.161 1.224-0.251 1.625-0.27 0.408-0.021 0.627 0.032 0.657 0.159 0.020 0.085-0.026 0.159-0.138 0.223s-0.212 0.117-0.3 0.16c-0.089 0.036-0.206 0.082-0.35 0.138-0.146 0.049-0.281 0.096-0.406 0.14-0.126 0.037-0.29 0.091-0.491 0.16-0.194 0.068-0.374 0.133-0.539 0.194-0.167 0.054-0.393 0.133-0.676 0.237s-0.467 0.169-0.55 0.196c0.012 0.020 0.023 0.050 0.033 0.093 0.079 0.332 0.122 1.127 0.129 2.386 0.446-0.082 0.916-0.204 1.411-0.365 0.502-0.163 0.81-0.258 0.923-0.284 0.27-0.064 0.419-0.039 0.446 0.074 0.052 0.219-0.213 0.475-0.797 0.769-0.576 0.292-1.231 0.524-1.963 0.696z">
            </path>
            <path fill="#2c2c2c" style="fill: var(--color2, #2c2c2c)"
                d="M9.672 18.701c-0.057-0.24-0.15-0.457-0.279-0.651-0.13-0.201-0.282-0.333-0.455-0.397-0.459 0.25-0.792 0.727-0.999 1.432-0.202 0.696-0.239 1.317-0.109 1.861s0.345 0.851 0.647 0.922c0.488-0.219 0.84-0.667 1.054-1.344 0.22-0.686 0.267-1.293 0.14-1.823zM6.89 19.456c0.118-0.61 0.334-1.138 0.648-1.584 0.32-0.456 0.689-0.733 1.109-0.831 0.427-0.1 0.825-0.004 1.195 0.29 0.368 0.286 0.614 0.687 0.737 1.203 0.121 0.509 0.121 1.061-0 1.656-0.123 0.588-0.363 1.111-0.719 1.568-0.351 0.448-0.772 0.73-1.263 0.845-0.363 0.085-0.704-0.010-1.025-0.285s-0.542-0.667-0.663-1.176c-0.123-0.516-0.129-1.077-0.018-1.685z">
            </path>
            <path fill="#2c2c2c" style="fill: var(--color2, #2c2c2c)"
                d="M14.505 17.565c-0.057-0.24-0.15-0.457-0.279-0.651-0.13-0.201-0.282-0.333-0.455-0.397-0.459 0.25-0.792 0.727-0.999 1.432-0.202 0.696-0.239 1.317-0.109 1.861s0.345 0.851 0.647 0.922c0.488-0.219 0.84-0.667 1.054-1.344 0.22-0.686 0.267-1.293 0.14-1.823zM11.723 18.32c0.118-0.61 0.334-1.138 0.648-1.584 0.32-0.456 0.689-0.733 1.109-0.831 0.427-0.1 0.825-0.004 1.195 0.29 0.368 0.286 0.614 0.687 0.737 1.203 0.121 0.509 0.121 1.061-0 1.656-0.123 0.588-0.363 1.111-0.719 1.568-0.351 0.448-0.772 0.73-1.263 0.845-0.363 0.085-0.704-0.010-1.025-0.285s-0.542-0.667-0.663-1.176c-0.123-0.516-0.129-1.077-0.018-1.685z">
            </path>
            <path fill="#2c2c2c" style="fill: var(--color2, #2c2c2c)"
                d="M19.547 11.345c0.114-0.027 0.278 0.047 0.492 0.22 0.219 0.165 0.351 0.339 0.395 0.523s0.079 0.727 0.107 1.631c0.026 0.897 0.030 1.832 0.014 2.805-0.021 2.183-0.113 3.294-0.277 3.332-0.1 0.023-0.224-0.011-0.374-0.102-0.144-0.1-0.227-0.197-0.249-0.288s-0.041-0.281-0.056-0.569c-0.529 0.87-1.053 1.366-1.572 1.488-0.313 0.074-0.631-0.001-0.954-0.223-0.316-0.224-0.51-0.488-0.583-0.792-0.104-0.438-0.11-0.985-0.019-1.64 0.097-0.664 0.311-1.296 0.641-1.896s0.748-0.959 1.253-1.078c0.505-0.119 0.928 0.099 1.27 0.652 0.006-1.583-0.076-2.813-0.248-3.69-0.050-0.212 0.003-0.336 0.159-0.373zM19.612 16.823c-0.091-0.381-0.235-0.687-0.432-0.917-0.19-0.231-0.378-0.325-0.563-0.282-0.306 0.072-0.574 0.333-0.805 0.782s-0.384 0.941-0.46 1.473c-0.071 0.524-0.064 0.962 0.020 1.316 0.030 0.127 0.101 0.219 0.212 0.275s0.23 0.069 0.358 0.039c0.277-0.065 0.604-0.351 0.979-0.857 0.382-0.508 0.616-1.055 0.702-1.642l0.002-0.135-0.013-0.053z">
            </path>
            <path fill="#2c2c2c" style="fill: var(--color2, #2c2c2c)"
                d="M26.421 16.184c0.138 0.579-0.009 1.128-0.441 1.648-0.434 0.512-0.992 0.849-1.675 1.009-0.675 0.159-1.275 0.117-1.798-0.125-0.525-0.25-0.824-0.53-0.898-0.841-0.050-0.212-0.012-0.333 0.116-0.363 0.114-0.027 0.378 0.090 0.793 0.351 0.157 0.090 0.354 0.163 0.593 0.219 0.246 0.054 0.489 0.053 0.731-0.004 0.498-0.117 0.908-0.348 1.232-0.692 0.331-0.346 0.461-0.668 0.39-0.964-0.045-0.191-0.231-0.404-0.558-0.641s-0.677-0.449-1.052-0.636c-0.37-0.197-0.719-0.417-1.047-0.66s-0.513-0.454-0.555-0.63c-0.042-0.177-0.051-0.372-0.027-0.587s0.068-0.378 0.131-0.49c0.205-0.369 0.569-0.749 1.091-1.14 0.53-0.393 0.994-0.636 1.392-0.73 0.206-0.048 0.396-0.022 0.571 0.078s0.279 0.225 0.314 0.374c0.017 0.071-0.044 0.145-0.184 0.222s-0.353 0.187-0.642 0.33c-0.284 0.134-0.532 0.274-0.744 0.421-0.744 0.503-1.081 0.899-1.012 1.189 0.037 0.155 0.556 0.492 1.558 1.010 0.386 0.2 0.75 0.454 1.093 0.761 0.349 0.298 0.559 0.596 0.629 0.893z">
            </path>
            <path fill="#2c2c2c" style="fill: var(--color2, #2c2c2c)"
                d="M28.87 16.716c0.032 0.134 0.126 0.183 0.283 0.146 0.27-0.064 0.58-0.215 0.928-0.453 0.354-0.247 0.552-0.376 0.595-0.386 0.128-0.030 0.208 0.022 0.24 0.156 0.049 0.205-0.108 0.492-0.471 0.86-0.356 0.367-0.708 0.592-1.056 0.674-0.341 0.080-0.648 0.055-0.919-0.075-0.273-0.137-0.433-0.305-0.48-0.503s-0.064-0.459-0.051-0.782c0.011-0.331 0.036-0.765 0.073-1.304 0.042-0.547 0.070-0.997 0.084-1.351-0.316 0.156-0.53 0.248-0.644 0.275s-0.241-0.003-0.382-0.089c-0.135-0.095-0.215-0.196-0.241-0.302-0.040-0.169 0.383-0.441 1.271-0.813-0.012-0.616-0.071-1.151-0.179-1.603-0.050-0.212-0.005-0.335 0.138-0.368 0.121-0.028 0.289 0.014 0.503 0.128 0.213 0.107 0.342 0.255 0.388 0.446s0.065 0.54 0.058 1.049c0.397-0.131 0.716-0.224 0.958-0.281 0.427-0.1 0.662-0.059 0.706 0.125 0.025 0.106-0.071 0.222-0.289 0.348-0.211 0.124-0.668 0.347-1.372 0.669-0.017 0.593-0.053 1.277-0.109 2.051-0.058 0.767-0.068 1.228-0.031 1.384z">
            </path>
            <path fill="#2c2c2c" style="fill: var(--color2, #2c2c2c)"
                d="M33.639 11.164c0.32-0.075 0.654 0.018 1.001 0.279 0.346 0.254 0.55 0.512 0.612 0.774 0.060 0.254 0.034 0.537-0.080 0.847 0.111 0.086 0.175 0.168 0.194 0.245 0.047 0.198 0.082 0.548 0.103 1.050 0.029 0.5 0.050 0.827 0.064 0.981 0.021 0.152 0.035 0.275 0.043 0.37 0.006 0.088 0.008 0.177 0.007 0.267 0.014 0.183-0.029 0.287-0.129 0.31-0.128 0.030-0.261-0.054-0.398-0.253-0.132-0.208-0.247-0.486-0.345-0.836-0.443 0.947-0.935 1.484-1.475 1.611-0.327 0.077-0.683 0.015-1.069-0.185-0.38-0.209-0.605-0.462-0.676-0.758-0.101-0.424-0.069-0.983 0.096-1.678 0.163-0.702 0.436-1.356 0.817-1.96s0.793-0.959 1.234-1.062zM34.574 12.914c-0.156-0.657-0.366-0.954-0.629-0.893-0.277 0.065-0.554 0.339-0.829 0.822-0.277 0.475-0.485 0.991-0.623 1.545s-0.173 0.977-0.104 1.266c0.029 0.12 0.102 0.207 0.22 0.262 0.116 0.047 0.242 0.055 0.377 0.023 0.334-0.079 0.658-0.39 0.972-0.933 0.312-0.551 0.473-1.167 0.484-1.848-0.004-0.111 0.041-0.189 0.136-0.233l-0.002-0.011z">
            </path>
            <path fill="#bbf330" style="fill: var(--color3, #bbf330)"
                d="M31.525 20.209c-0.487 0.12-0.876 0.479-1.073 0.941-2.018 4.725-6.731 8.048-12.24 8.048-3.194 0-6.121-1.117-8.41-2.977-0.387-0.315-0.896-0.451-1.38-0.331-1.085 0.267-1.487 1.578-0.635 2.3 2.808 2.376 6.448 3.811 10.425 3.811 6.774 0 12.57-4.161 14.944-10.053 0.416-1.034-0.549-2.004-1.631-1.738zM4.193 13.954c0.562-0.138 0.982-0.598 1.123-1.159 1.441-5.732 6.657-9.993 12.895-9.993 3.94 0 7.473 1.7 9.904 4.397 0.385 0.427 0.967 0.636 1.525 0.498 0.981-0.241 1.421-1.382 0.759-2.145-2.951-3.4-7.317-5.552-12.188-5.552-7.648 0-14.049 5.304-15.687 12.414-0.226 0.98 0.692 1.78 1.668 1.54z">
            </path>
            <path fill="#bbf330" style="fill: var(--color3, #bbf330); stroke: var(--color3, #bbf330)" stroke="#bbf330"
                stroke-linejoin="round" stroke-linecap="butt" stroke-miterlimit="4" stroke-width="1.0308"
                d="M42.409 5.331c-3.803 7.241-5.473 2.465-10.826 5.271 0.535-8.406 6.205-3.291 10.826-5.271z"></path>
        </symbol>


        <symbol id="icon-gg_menu" viewBox="0 0 43 32">
            <path fill="#7eb101" style="fill: var(--color3, #7eb101)"
                d="M0.592 3.556c0-0.55 0.219-1.078 0.607-1.467s0.917-0.607 1.467-0.607h37.333c0.55 0 1.078 0.219 1.466 0.607s0.607 0.917 0.607 1.467c0 0.55-0.218 1.078-0.607 1.467s-0.916 0.607-1.466 0.607h-37.333c-0.55 0-1.078-0.219-1.467-0.607s-0.607-0.917-0.607-1.467zM0.592 16.066c0-0.55 0.219-1.078 0.607-1.467s0.917-0.607 1.467-0.607h37.333c0.55 0 1.078 0.219 1.466 0.607s0.607 0.916 0.607 1.467c0 0.55-0.218 1.078-0.607 1.467s-0.916 0.607-1.466 0.607h-37.333c-0.55 0-1.078-0.218-1.467-0.607s-0.607-0.916-0.607-1.467zM2.666 26.503c-0.55 0-1.078 0.219-1.467 0.607s-0.607 0.917-0.607 1.467 0.219 1.078 0.607 1.467c0.389 0.389 0.917 0.607 1.467 0.607h37.333c0.55 0 1.078-0.218 1.467-0.607s0.607-0.917 0.607-1.467c0-0.55-0.218-1.078-0.607-1.467s-0.916-0.607-1.466-0.607h-37.333z">
            </path>
        </symbol>
        <symbol id="icon-close" viewBox="0 0 32 32">
<path d="M19.141 16.123l10.676-10.668c0.36-0.42 0.548-0.96 0.527-1.513s-0.251-1.077-0.642-1.467c-0.391-0.391-0.915-0.62-1.469-0.641s-1.093 0.167-1.514 0.526l-10.676 10.558-10.742-10.734c-0.42-0.36-0.961-0.548-1.514-0.526s-1.077 0.25-1.469 0.641c-0.391 0.391-0.62 0.915-0.642 1.467s0.167 1.093 0.527 1.513l10.72 10.844-10.501 10.361c-0.23 0.197-0.417 0.439-0.549 0.711s-0.206 0.569-0.218 0.871 0.039 0.604 0.15 0.885c0.11 0.282 0.278 0.538 0.492 0.751s0.47 0.381 0.752 0.492c0.282 0.11 0.584 0.161 0.886 0.15s0.599-0.086 0.872-0.217c0.273-0.132 0.515-0.318 0.712-0.548l10.479-10.471 10.413 10.405c0.42 0.359 0.961 0.547 1.514 0.526s1.077-0.25 1.469-0.641c0.391-0.391 0.621-0.915 0.642-1.467s-0.167-1.093-0.527-1.512l-10.369-10.295z"></path>
</symbol>
        <symbol id="error" viewBox="0 0 32 32">
            <path
                d="M16 2.899l13.409 26.726h-26.819l13.409-26.726zM16 0c-0.69 0-1.379 0.465-1.903 1.395l-13.659 27.222c-1.046 1.86-0.156 3.383 1.978 3.383h27.166c2.134 0 3.025-1.522 1.978-3.383h0l-13.659-27.222c-0.523-0.93-1.213-1.395-1.903-1.395v0z">
            </path>
            <path d="M18 26c0 1.105-0.895 2-2 2s-2-0.895-2-2c0-1.105 0.895-2 2-2s2 0.895 2 2z"></path>
            <path d="M16 22c-1.105 0-2-0.895-2-2v-6c0-1.105 0.895-2 2-2s2 0.895 2 2v6c0 1.105-0.895 2-2 2z"></path>

        </symbol>
        <symbol id="modal_close" viewBox="0 0 30 32">
            <path
                d="M16.219 14.826l4.928-4.924c0.166-0.194 0.253-0.443 0.243-0.698s-0.116-0.497-0.296-0.677c-0.181-0.18-0.423-0.286-0.678-0.296s-0.505 0.077-0.699 0.243l-4.928 4.873-4.958-4.954c-0.194-0.166-0.443-0.253-0.699-0.243s-0.497 0.116-0.678 0.296c-0.181 0.18-0.286 0.422-0.296 0.677s0.077 0.504 0.243 0.698l4.948 5.005-4.846 4.782c-0.106 0.091-0.192 0.203-0.253 0.328s-0.095 0.263-0.1 0.402 0.018 0.279 0.069 0.409c0.051 0.13 0.128 0.248 0.227 0.347s0.217 0.176 0.347 0.227c0.13 0.051 0.269 0.074 0.409 0.069s0.277-0.040 0.402-0.1c0.126-0.061 0.238-0.147 0.329-0.253l4.836-4.833 4.806 4.802c0.194 0.166 0.443 0.253 0.699 0.243s0.497-0.116 0.678-0.296c0.181-0.18 0.286-0.422 0.296-0.677s-0.077-0.504-0.243-0.698l-4.786-4.751z">
            </path>

            <symbol id="icon-Icon-Deliv" viewBox="0 0 32 32">
                <path fill="#fefefe" style="fill: var(--color1, #fefefe)"
                    d="M32 16c0 8.837-7.163 16-16 16s-16-7.163-16-16c0-8.837 7.163-16 16-16s16 7.163 16 16z"></path>
                <path fill="#7eb101" style="fill: var(--color2, #7eb101)"
                    d="M9.489 14.422l2.356 1c0.267-0.533 0.552-1.059 0.856-1.578s0.626-1.015 0.967-1.489l-1.756-0.356-2.422 2.422zM12.911 16.222l2.956 2.956c0.844-0.385 1.637-0.822 2.378-1.311s1.341-0.963 1.8-1.422c1.2-1.2 2.081-2.43 2.644-3.689s0.867-2.682 0.911-4.267c-1.585 0.044-3.007 0.348-4.267 0.911s-2.489 1.444-3.689 2.644c-0.459 0.459-0.933 1.059-1.422 1.8s-0.926 1.533-1.311 2.378zM18 14.089c-0.296-0.296-0.444-0.663-0.444-1.1s0.148-0.804 0.444-1.1c0.296-0.296 0.663-0.444 1.1-0.444s0.804 0.148 1.1 0.444c0.296 0.296 0.444 0.663 0.444 1.1s-0.148 0.804-0.444 1.1c-0.296 0.296-0.663 0.444-1.1 0.444s-0.804-0.148-1.1-0.444zM17.667 22.6l2.422-2.422-0.356-1.756c-0.474 0.341-0.97 0.663-1.489 0.967s-1.044 0.589-1.578 0.856l1 2.356zM24.911 7.178c0.133 2.015-0.119 3.852-0.756 5.511s-1.689 3.222-3.156 4.689l-0.089 0.089 0.489 2.444c0.044 0.222 0.033 0.437-0.033 0.644s-0.181 0.393-0.344 0.556l-3.8 3.822-1.889-4.4-3.778-3.778-4.4-1.889 3.822-3.8c0.163-0.163 0.348-0.278 0.556-0.344s0.422-0.078 0.644-0.033l2.444 0.489c0.015-0.015 0.030-0.026 0.044-0.033s0.030-0.019 0.044-0.033c1.467-1.467 3.030-2.522 4.689-3.167s3.496-0.9 5.511-0.767zM8.644 19.444c0.518-0.519 1.152-0.781 1.9-0.789s1.381 0.248 1.9 0.767c0.518 0.518 0.774 1.152 0.767 1.9s-0.27 1.381-0.789 1.9c-0.385 0.385-0.981 0.704-1.789 0.956s-2.019 0.489-3.633 0.711c0.222-1.615 0.456-2.83 0.7-3.644s0.559-1.415 0.944-1.8zM9.578 20.4c-0.207 0.222-0.393 0.57-0.556 1.044s-0.304 1.081-0.422 1.822c0.741-0.118 1.348-0.259 1.822-0.422s0.822-0.348 1.044-0.556c0.281-0.252 0.426-0.567 0.433-0.944s-0.122-0.707-0.389-0.989c-0.282-0.267-0.611-0.396-0.989-0.389s-0.693 0.152-0.944 0.433z">
                </path>
            </symbol>

            <symbol id="icon-Icon-Order" viewBox="0 0 32 32">
                <path fill="#fefefe" style="fill: var(--color1, #fefefe)"
                    d="M32 16c0 8.837-7.163 16-16 16s-16-7.163-16-16c0-8.837 7.163-16 16-16s16 7.163 16 16z"></path>
                <path fill="#7eb101" style="fill: var(--color2, #7eb101)"
                    d="M15.667 6.222c1.348 0 2.5 0.47 3.456 1.411s1.433 2.085 1.433 3.433c0 0.77-0.167 1.496-0.5 2.178s-0.804 1.259-1.411 1.733h-0.756v-1.111c0.43-0.341 0.759-0.756 0.989-1.244s0.344-1.007 0.344-1.556c0-0.978-0.348-1.807-1.044-2.489s-1.533-1.022-2.511-1.022-1.815 0.341-2.511 1.022c-0.696 0.682-1.044 1.511-1.044 2.489 0 0.548 0.115 1.067 0.344 1.556s0.559 0.904 0.989 1.244v1.6c-0.83-0.43-1.481-1.037-1.956-1.822s-0.711-1.644-0.711-2.578c0-1.348 0.478-2.493 1.433-3.433s2.107-1.411 3.456-1.411zM14.822 24.889c-0.252 0-0.489-0.048-0.711-0.144s-0.415-0.226-0.578-0.389l-4.578-4.578 1.244-1.289c0.207-0.207 0.441-0.367 0.7-0.478s0.53-0.13 0.811-0.056l1.733 0.4v-7.244c0-0.622 0.215-1.148 0.644-1.578s0.956-0.644 1.578-0.644 1.148 0.215 1.578 0.644c0.43 0.43 0.644 0.956 0.644 1.578v3.822h0.578c0.074 0 0.141 0.015 0.2 0.044s0.126 0.059 0.2 0.089l3.289 1.6c0.356 0.163 0.619 0.426 0.789 0.789s0.219 0.737 0.144 1.122l-0.8 4.844c-0.074 0.43-0.281 0.781-0.622 1.056s-0.726 0.411-1.156 0.411h-5.689zM14.644 23.556h6.244l0.956-5.533-4.067-2.022h-1.222v-4.889c0-0.267-0.081-0.481-0.244-0.644s-0.378-0.244-0.644-0.244-0.481 0.081-0.644 0.244c-0.163 0.163-0.244 0.378-0.244 0.644v8.867l-3.422-0.733-0.511 0.511 3.8 3.8zM20.889 23.556v0z">
                </path>
            </symbol>

        </symbol>
    </defs>
</svg>