<svg aria-hidden="true" style="position:absolute;width:0;height:0;overflow:hidden" xmlns="http://www.w3.org/2000/svg"><defs><symbol id="icon-VectorLeft" viewBox="0 0 17 32"><path stroke-width="1.454" stroke="#000" d="M1.109 16.403a.55.55 0 0 1-.124-.177l-.001-.004a.54.54 0 0 1 .002-.434l-.001.004a.56.56 0 0 1 .125-.179L15.302 2.09a.545.545 0 0 1 .748-.005l.021.021a.446.446 0 0 1 .101.498l.001-.003a.45.45 0 0 1-.102.147h-.001L2.153 16.003 16.07 29.262a.446.446 0 0 1 .1.501l.001-.003a.45.45 0 0 1-.102.147l-.021.021a.543.543 0 0 1-.749-.005L1.107 16.402z"/></symbol><symbol id="icon-VectorRight" viewBox="0 0 17 32"><path stroke-width="1.454" stroke="#000" d="M16.359 15.611a.55.55 0 0 1 .124.177l.001.004a.536.536 0 0 1-.002.434l.001-.003a.56.56 0 0 1-.125.179L2.166 29.925a.545.545 0 0 1-.748.005l-.022-.021a.443.443 0 0 1-.001-.642h.003l13.917-13.255L1.398 2.753a.444.444 0 0 1 0-.644l.021-.021a.543.543 0 0 1 .749.005L16.36 15.614z"/></symbol></defs></svg>