<svg aria-hidden="true" style="position:absolute;width:0;height:0;overflow:hidden" xmlns="http://www.w3.org/2000/svg"><defs><symbol id="icon-VectorRight" viewBox="0 0 17 32"><path fill="#fff" style="fill:var(--color1, #fff)" stroke-width="1.454" stroke="#000" d="M16.359 15.611a.55.55 0 0 1 .124.177l.001.004a.536.536 0 0 1-.002.434l.001-.003a.56.56 0 0 1-.125.179L2.166 29.925a.545.545 0 0 1-.748.005l-.022-.021a.443.443 0 0 1-.001-.642h.003l13.917-13.255L1.398 2.753a.444.444 0 0 1 0-.644l.021-.021a.543.543 0 0 1 .749.005L16.36 15.614z"/></symbol></defs></svg>